HIERARCHY
ROOT Hips
{
  OFFSET 3.90583 100.824 112.075
  CHANNELS 6 Xposition Yposition Zposition Zrotation Xrotation Yrotation
  JOINT Spine
  {
    OFFSET 0 10.1816 0.1315
    CHANNELS 6 Xposition Yposition Zposition Zrotation Xrotation Yrotation
    JOINT Spine1
    {
      OFFSET 0 10.0835 -1.0008
      CHANNELS 6 Xposition Yposition Zposition Zrotation Xrotation Yrotation
      JOINT Spine2
      {
        OFFSET 0 9.1 -1.3734
        CHANNELS 6 Xposition Yposition Zposition Zrotation Xrotation Yrotation
        JOINT Neck
        {
          OFFSET 0 16.6717 -2.5162
          CHANNELS 6 Xposition Yposition Zposition Zrotation Xrotation Yrotation
          JOINT Head
          {
            OFFSET 0 9.6179 1.685
            CHANNELS 6 Xposition Yposition Zposition Zrotation Xrotation Yrotation
            JOINT HeadTop_End
            {
              OFFSET 0 17.8152 2.585
              CHANNELS 6 Xposition Yposition Zposition Zrotation Xrotation Yrotation
              End Site
              {
                OFFSET 0 0 0
              }
            }
            JOINT LeftEye
            {
              OFFSET 3.0676 6.4095 9.2836
              CHANNELS 6 Xposition Yposition Zposition Zrotation Xrotation Yrotation
              End Site
              {
                OFFSET 0 0 0
              }
            }
            JOINT RightEye
            {
              OFFSET -3.0676 6.4095 9.2835
              CHANNELS 6 Xposition Yposition Zposition Zrotation Xrotation Yrotation
              End Site
              {
                OFFSET 0 0 0
              }
            }
          }
        }
        JOINT LeftShoulder
        {
          OFFSET 4.5704 10.946 -2.628
          CHANNELS 6 Xposition Yposition Zposition Zrotation Xrotation Yrotation
          JOINT LeftArm
          {
            OFFSET 10.5924 -0.5246 -2.2321
            CHANNELS 6 Xposition Yposition Zposition Zrotation Xrotation Yrotation
            JOINT LeftForeArm
            {
              OFFSET 27.8415 -0.0001 0
              CHANNELS 6 Xposition Yposition Zposition Zrotation Xrotation Yrotation
              JOINT LeftHand
              {
                OFFSET 28.3288 0 0
                CHANNELS 6 Xposition Yposition Zposition Zrotation Xrotation Yrotation
                JOINT LeftHandThumb1
                {
                  OFFSET 2.4661 -1.575 2.6824
                  CHANNELS 6 Xposition Yposition Zposition Zrotation Xrotation Yrotation
                  JOINT LeftHandThumb2
                  {
                    OFFSET 3.2298 -1.8647 1.8647
                    CHANNELS 6 Xposition Yposition Zposition Zrotation Xrotation Yrotation
                    JOINT LeftHandThumb3
                    {
                      OFFSET 2.6526 -1.5315 1.5315
                      CHANNELS 6 Xposition Yposition Zposition Zrotation Xrotation Yrotation
                      End Site
                      {
                        OFFSET 1.9546 -1.1285 1.1285
                      }
                    }
                  }
                }
                JOINT LeftHandIndex1
                {
                  OFFSET 9.1093 -0.5171 2.2601
                  CHANNELS 6 Xposition Yposition Zposition Zrotation Xrotation Yrotation
                  JOINT LeftHandIndex2
                  {
                    OFFSET 3.6764 0 0
                    CHANNELS 6 Xposition Yposition Zposition Zrotation Xrotation Yrotation
                    JOINT LeftHandIndex3
                    {
                      OFFSET 2.8831 0 0
                      CHANNELS 6 Xposition Yposition Zposition Zrotation Xrotation Yrotation
                      End Site
                      {
                        OFFSET 2.3927 0 0
                      }
                    }
                  }
                }
                JOINT LeftHandMiddle1
                {
                  OFFSET 9.5334 0 0
                  CHANNELS 6 Xposition Yposition Zposition Zrotation Xrotation Yrotation
                  JOINT LeftHandMiddle2
                  {
                    OFFSET 3.6982 0 0
                    CHANNELS 6 Xposition Yposition Zposition Zrotation Xrotation Yrotation
                    JOINT LeftHandMiddle3
                    {
                      OFFSET 2.9509 0 0
                      CHANNELS 6 Xposition Yposition Zposition Zrotation Xrotation Yrotation
                      End Site
                      {
                        OFFSET 2.8339 0 0
                      }
                    }
                  }
                }
                JOINT LeftHandRing1
                {
                  OFFSET 9.1045 -0.0439 -1.8651
                  CHANNELS 6 Xposition Yposition Zposition Zrotation Xrotation Yrotation
                  JOINT LeftHandRing2
                  {
                    OFFSET 3.154 0 0
                    CHANNELS 6 Xposition Yposition Zposition Zrotation Xrotation Yrotation
                    JOINT LeftHandRing3
                    {
                      OFFSET 2.9377 0 0
                      CHANNELS 6 Xposition Yposition Zposition Zrotation Xrotation Yrotation
                      End Site
                      {
                        OFFSET 2.6475 0 0
                      }
                    }
                  }
                }
                JOINT LeftHandPinky1
                {
                  OFFSET 8.0778 -0.4887 -3.8061
                  CHANNELS 6 Xposition Yposition Zposition Zrotation Xrotation Yrotation
                  JOINT LeftHandPinky2
                  {
                    OFFSET 3.6 0 0
                    CHANNELS 6 Xposition Yposition Zposition Zrotation Xrotation Yrotation
                    JOINT LeftHandPinky3
                    {
                      OFFSET 2.1142 0 0
                      CHANNELS 6 Xposition Yposition Zposition Zrotation Xrotation Yrotation
                      End Site
                      {
                        OFFSET 1.9757 0 0
                      }
                    }
                  }
                }
              }
            }
          }
        }
        JOINT RightShoulder
        {
          OFFSET -4.57 10.9462 -2.628
          CHANNELS 6 Xposition Yposition Zposition Zrotation Xrotation Yrotation
          JOINT RightArm
          {
            OFFSET -10.5928 -0.5248 -2.2321
            CHANNELS 6 Xposition Yposition Zposition Zrotation Xrotation Yrotation
            JOINT RightForeArm
            {
              OFFSET -27.8415 0 0
              CHANNELS 6 Xposition Yposition Zposition Zrotation Xrotation Yrotation
              JOINT RightHand
              {
                OFFSET -28.3288 0 0.0001
                CHANNELS 6 Xposition Yposition Zposition Zrotation Xrotation Yrotation
                JOINT RightHandPinky1
                {
                  OFFSET -8.0767 -0.4885 -3.806
                  CHANNELS 6 Xposition Yposition Zposition Zrotation Xrotation Yrotation
                  JOINT RightHandPinky2
                  {
                    OFFSET -3.6 0 0.0001
                    CHANNELS 6 Xposition Yposition Zposition Zrotation Xrotation Yrotation
                    JOINT RightHandPinky3
                    {
                      OFFSET -2.1142 0 0
                      CHANNELS 6 Xposition Yposition Zposition Zrotation Xrotation Yrotation
                      End Site
                      {
                        OFFSET -1.9757 0 0
                      }
                    }
                  }
                }
                JOINT RightHandRing1
                {
                  OFFSET -9.1036 -0.0439 -1.8651
                  CHANNELS 6 Xposition Yposition Zposition Zrotation Xrotation Yrotation
                  JOINT RightHandRing2
                  {
                    OFFSET -3.154 0 0
                    CHANNELS 6 Xposition Yposition Zposition Zrotation Xrotation Yrotation
                    JOINT RightHandRing3
                    {
                      OFFSET -2.9377 0 0
                      CHANNELS 6 Xposition Yposition Zposition Zrotation Xrotation Yrotation
                      End Site
                      {
                        OFFSET -2.6475 0 0
                      }
                    }
                  }
                }
                JOINT RightHandMiddle1
                {
                  OFFSET -9.5325 0 0
                  CHANNELS 6 Xposition Yposition Zposition Zrotation Xrotation Yrotation
                  JOINT RightHandMiddle2
                  {
                    OFFSET -3.6982 0 0
                    CHANNELS 6 Xposition Yposition Zposition Zrotation Xrotation Yrotation
                    JOINT RightHandMiddle3
                    {
                      OFFSET -2.9509 0 0
                      CHANNELS 6 Xposition Yposition Zposition Zrotation Xrotation Yrotation
                      End Site
                      {
                        OFFSET -2.8339 0 0.0001
                      }
                    }
                  }
                }
                JOINT RightHandIndex1
                {
                  OFFSET -9.1083 -0.5168 2.2601
                  CHANNELS 6 Xposition Yposition Zposition Zrotation Xrotation Yrotation
                  JOINT RightHandIndex2
                  {
                    OFFSET -3.6764 0 0
                    CHANNELS 6 Xposition Yposition Zposition Zrotation Xrotation Yrotation
                    JOINT RightHandIndex3
                    {
                      OFFSET -2.8831 0 0
                      CHANNELS 6 Xposition Yposition Zposition Zrotation Xrotation Yrotation
                      End Site
                      {
                        OFFSET -2.3927 0 0
                      }
                    }
                  }
                }
                JOINT RightHandThumb1
                {
                  OFFSET -2.4648 -1.5727 2.6826
                  CHANNELS 6 Xposition Yposition Zposition Zrotation Xrotation Yrotation
                  JOINT RightHandThumb2
                  {
                    OFFSET -3.2298 -1.8647 1.8647
                    CHANNELS 6 Xposition Yposition Zposition Zrotation Xrotation Yrotation
                    JOINT RightHandThumb3
                    {
                      OFFSET -2.6526 -1.5314 1.5314
                      CHANNELS 6 Xposition Yposition Zposition Zrotation Xrotation Yrotation
                      End Site
                      {
                        OFFSET -1.9546 -1.1285 1.1285
                      }
                    }
                  }
                }
              }
            }
          }
        }
      }
    }
  }
  JOINT LeftUpLeg
  {
    OFFSET 8.2078 -6.7517 -1.5996
    CHANNELS 6 Xposition Yposition Zposition Zrotation Xrotation Yrotation
    JOINT LeftLeg
    {
      OFFSET 0 -44.3705 0.2846
      CHANNELS 6 Xposition Yposition Zposition Zrotation Xrotation Yrotation
      JOINT LeftFoot
      {
        OFFSET 0 -44.4279 -2.9822
        CHANNELS 6 Xposition Yposition Zposition Zrotation Xrotation Yrotation
        JOINT LeftToeBase
        {
          OFFSET 0 -8.7287 10.7106
          CHANNELS 6 Xposition Yposition Zposition Zrotation Xrotation Yrotation
          End Site
          {
            OFFSET 0 -0.0007 9.2781
          }
        }
      }
    }
  }
  JOINT RightUpLeg
  {
    OFFSET -8.2078 -6.7517 -1.5996
    CHANNELS 6 Xposition Yposition Zposition Zrotation Xrotation Yrotation
    JOINT RightLeg
    {
      OFFSET 0 -44.3705 0.2862
      CHANNELS 6 Xposition Yposition Zposition Zrotation Xrotation Yrotation
      JOINT RightFoot
      {
        OFFSET 0 -44.4277 -2.9838
        CHANNELS 6 Xposition Yposition Zposition Zrotation Xrotation Yrotation
        JOINT RightToeBase
        {
          OFFSET 0 -8.7287 10.7106
          CHANNELS 6 Xposition Yposition Zposition Zrotation Xrotation Yrotation
          End Site
          {
            OFFSET 0 -0.0007 9.2781
          }
        }
      }
    }
  }
}
MOTION
Frames:	4
Frame Time:	0.0333333
4.1384 102.554 98.8905 2.60738 -1.50376 5.84951 0 10.1816 0.1315 -0.791247 5.90978 -2.82262 0 10.0835 -1.0008 0.0380727 0.449598 -0.778682 -8.88178e-016 9.1 -1.3734 0.0420997 0.450125 -0.778213 -8.88178e-016 16.6717 -2.5162 -0.257416 -1.22644 -0.133589 -4.44089e-016 9.6179 1.685 -2.17738 -3.29147 -3.18447 4.44089e-016 17.8152 2.585 6.21202e-018 0 1.98785e-016 3.0676 6.4095 9.2836 6.21202e-018 0 1.98785e-016 -3.0676 6.4095 9.2835 6.21202e-018 0 1.98785e-016 4.5704 10.946 -2.628 -19.8776 2.23674 -5.02168 10.5924 -0.5246 -2.2321 -57.7669 11.171 -13.1785 27.8415 -0.0001 0 -0.00018824 -4.69807e-006 -14.647 28.3288 0 0 10.9377 -2.12509 -9.40372 2.4661 -1.575 2.6824 13.6709 -3.11086 -0.769491 3.2298 -1.8647 1.8647 -6.89439 16.7906 21.921 2.6526 -1.5315 1.5315 13.3933 -22.4692 -14.3352 9.1093 -0.5171 2.2601 -22.4147 -1.27395 0.951153 3.6764 0 0 -22.3176 -0.438019 2.22028 2.8831 0 0 -8.32115 -0.0615387 0.845982 9.5334 1.42109e-014 0 -31.3128 -2.02712 5.98253 3.6982 0 1.42109e-014 -24.1377 -0.511301 2.39105 2.9509 7.10543e-015 0 -14.2102 -0.178882 1.43507 9.1045 -0.0439 -1.8651 -32.3479 -2.11029 8.58561 3.154 1.42109e-014 0 -35.0047 -1.05827 3.35507 2.9377 -7.10543e-015 -1.42109e-014 -9.2606 -0.0761869 0.940709 8.0778 -0.4887 -3.8061 -29.0659 -1.82919 6.23963 3.6 7.10543e-015 1.42109e-014 -21.5011 -0.406918 2.14292 2.1142 0 0 -13.3976 -0.1591 1.35454 -4.57 10.9462 -2.628 16.6289 0.652279 -0.710081 -10.5928 -0.5248 -2.2321 64.5782 4.71459 -5.03175 -27.8415 0 -7.10543e-015 -5.34051e-006 -1.17074e-006 10.4432 -28.3288 -7.10543e-015 0.0001 2.74058 8.46525 2.2629 -8.0767 -0.4885 -3.806 52.5956 -4.3787 -7.02942 -3.6 7.10543e-015 0.0001 46.9117 -1.47055 -3.38996 -2.1142 1.42109e-014 7.10543e-015 34.2667 -0.805897 -2.61379 -9.1036 -0.0439 -1.8651 50.1671 -3.37635 -10.3925 -3.154 1.42109e-014 0 41.8637 -1.18542 -3.09849 -2.9377 0 0 25.2079 -0.442063 -1.97685 -9.5325 0 0 42.5878 -2.73581 -6.64878 -3.6982 -3.55271e-015 0 45.5299 -1.39079 -3.31347 -2.9509 -1.42109e-014 1.42109e-014 22.4675 -0.352323 -1.77576 -9.1083 -0.5168 2.2601 28.4693 -1.35802 -2.89269 -3.6764 1.77636e-015 -1.42109e-014 47.0585 -1.48041 -3.39916 -2.8831 0 0 26.0888 -0.472965 -2.04121 -2.4648 -1.5727 2.6826 -8.81396 -9.51783 3.42009 -3.2298 -1.8647 1.8647 -4.62507 15.7637 -21.9806 -2.6526 -1.5314 1.5314 -16.1522 -11.1162 18.2452 8.2078 -6.7517 -1.5996 -6.48463 -3.46263 5.19929 -3.55271e-015 -44.3705 0.2846 0.00641965 15.652 -5.0302 8.88178e-016 -44.4279 -2.9822 5.50451 -8.38052 0.0545498 0 -8.7287 10.7106 -5.50145e-007 -2.82093 2.23866e-006 -8.2078 -6.7517 -1.5996 -6.32011 -25.2359 -8.00906 0 -44.3705 0.2862 -3.24425 42.727 -7.74202 -3.55271e-015 -44.4277 -2.9838 4.40064 -0.976383 -0.291861 3.55271e-015 -8.7287 10.7106 -6.99608e-007 -4.7866 2.9447e-006 
4.07089 102.274 103.307 2.74971 -0.878478 6.88579 0 10.1816 0.1315 -0.784168 5.74066 -3.81279 0 10.0835 -1.0008 -0.0100557 0.469122 -1.03586 0 9.1 -1.3734 -0.00442469 0.47094 -1.03432 0 16.6717 -2.5162 -0.28322 -1.29916 -0.0737765 0 9.6179 1.685 -1.91637 -3.80879 -3.07593 0 17.8152 2.585 -1.86361e-017 0 3.97569e-016 3.0676 6.4095 9.2836 -1.86361e-017 0 3.97569e-016 -3.0676 6.4095 9.2835 -1.86361e-017 0 3.97569e-016 4.5704 10.946 -2.628 -19.7081 2.40515 -5.70388 10.5924 -0.5246 -2.2321 -54.1656 11.8923 -17.7775 27.8415 -0.0001 1.42109e-014 -0.000192125 -1.68533e-006 -17.05 28.3288 0 1.42109e-014 11.2634 -3.75792 -10.9222 2.4661 -1.575 2.6824 13.6709 -3.11086 -0.769491 3.2298 -1.8647 1.8647 -6.83596 16.7789 21.8009 2.6526 -1.5315 1.5315 13.3778 -22.4849 -14.3306 9.1093 -0.5171 2.2601 -22.3796 -1.27123 0.94691 3.6764 -1.42109e-014 -2.84217e-014 -22.4087 -0.441552 2.22888 2.8831 -1.42109e-014 2.84217e-014 -8.36613 -0.0622053 0.850518 9.5334 0 1.42109e-014 -31.2226 -2.01909 5.98522 3.6982 0 -1.42109e-014 -24.1223 -0.510654 2.38962 2.9509 -7.10543e-015 0 -14.2034 -0.178717 1.4344 9.1045 -0.0439 -1.8651 -32.2283 -2.0997 8.54558 3.154 0 0 -34.9906 -1.05744 3.35389 2.9377 0 0 -9.18919 -0.0750181 0.933519 8.0778 -0.4887 -3.8061 -28.7882 -1.80529 6.20082 3.6 0 0 -21.3677 -0.401943 2.13027 2.1142 1.42109e-014 0 -13.2469 -0.155562 1.33958 -4.57 10.9462 -2.628 16.6108 0.601567 -0.927677 -10.5928 -0.5248 -2.2321 65.1824 3.97291 -7.58693 -27.8415 0 0 -1.69771e-005 -4.69827e-006 10.2302 -28.3288 0 0.0001 3.45046 9.05633 1.81298 -8.0767 -0.4885 -3.806 51.7553 -4.37186 -7.24395 -3.6 0 0.0001 46.3799 -1.43919 -3.36033 -2.1142 0 0 33.7905 -0.784295 -2.5818 -9.1036 -0.0439 -1.8651 49.5305 -3.31901 -10.5155 -3.154 -7.10543e-015 7.10543e-015 41.2605 -1.15297 -3.06189 -2.9377 1.42109e-014 7.10543e-015 24.668 -0.423615 -1.93718 -9.5325 0 -1.42109e-014 41.5885 -2.65087 -6.76021 -3.6982 -7.10543e-015 0 44.6751 -1.34168 -3.26453 -2.9509 -1.42109e-014 -7.10543e-015 21.7512 -0.330477 -1.72199 -9.1083 -0.5168 2.2601 27.0792 -1.27601 -2.87465 -3.6764 -1.77636e-015 0 45.5191 -1.39017 -3.31286 -2.8831 1.42109e-014 0 25.074 -0.43745 -1.96703 -2.4648 -1.5727 2.6826 -8.81396 -9.51783 3.42009 -3.2298 -1.8647 1.8647 -4.84118 15.5796 -21.5936 -2.6526 -1.5314 1.5314 -16.2782 -11.1546 18.2816 8.2078 -6.7517 -1.5996 -6.16657 -1.01786 5.65871 -1.77636e-015 -44.3705 0.2846 -0.107537 15.2296 -6.49427 0 -44.4279 -2.9822 5.45242 -10.4389 0.204419 0 -8.7287 10.7106 9.72386e-007 -3.14003 -2.1417e-006 -8.2078 -6.7517 -1.5996 -7.46068 -27.596 -9.15006 4.44089e-016 -44.3705 0.2862 -2.48296 33.1094 -8.60129 0 -44.4277 -2.9838 5.18671 -0.665804 -1.58913 0 -8.7287 10.7106 -8.37301e-007 -4.62261 -9.00345e-006 
4.01147 101.692 107.622 2.99044 0.0666109 7.77584 0 10.1816 0.1315 -0.847403 5.25706 -4.55758 -8.88178e-016 10.0835 -1.0008 -0.0551966 0.41502 -1.23073 4.44089e-016 9.1 -1.3734 -0.0490483 0.418267 -1.22876 8.88178e-016 16.6717 -2.5162 -0.347249 -1.33412 -0.0278078 0 9.6179 1.685 -1.7713 -4.13919 -3.14031 8.88178e-016 17.8152 2.585 2.23633e-016 0 -0 3.0676 6.4095 9.2836 2.23633e-016 0 -0 -3.0676 6.4095 9.2835 2.23633e-016 0 -0 4.5704 10.946 -2.628 -19.7407 2.61419 -6.48512 10.5924 -0.5246 -2.2321 -50.6233 11.941 -21.7839 27.8415 -0.0001 -1.42109e-014 -0.000206862 7.84495e-006 -19.4076 28.3288 0 1.42109e-014 11.9243 -4.14246 -11.6989 2.4661 -1.575 2.6824 13.6709 -3.11086 -0.769491 3.2298 -1.8647 1.8647 -6.84384 16.78 21.8146 2.6526 -1.5315 1.5315 13.098 -22.1026 -14.1764 9.1093 -0.5171 2.2601 -22.5833 -1.28695 0.947812 3.6764 1.42109e-014 0 -22.5399 -0.44668 2.24125 2.8831 -1.42109e-014 0 -8.34637 -0.0619142 0.848533 9.5334 0 0 -31.4076 -2.03556 6.00001 3.6982 -1.42109e-014 -2.84217e-014 -24.2771 -0.517137 2.40404 2.9509 0 0 -14.3692 -0.182894 1.45079 9.1045 -0.0439 -1.8651 -32.3283 -2.10925 8.46041 3.154 1.42109e-014 1.42109e-014 -35.2939 -1.07528 3.37924 2.9377 1.42109e-014 1.42109e-014 -9.30311 -0.0768889 0.944996 8.0778 -0.4887 -3.8061 -28.7102 -1.79859 6.19175 3.6 0 0 -21.4515 -0.405061 2.1382 2.1142 0 0 -13.2825 -0.156389 1.34311 -4.57 10.9462 -2.628 16.4081 0.525869 -1.23574 -10.5928 -0.5248 -2.2321 65.6406 3.18297 -9.91909 -27.8415 0 -1.42109e-014 3.30938e-006 3.40433e-006 9.95635 -28.3288 0 0.0001 4.10384 10.3733 1.22285 -8.0767 -0.4885 -3.806 50.643 -4.31603 -7.43321 -3.6 0 0.0001 45.5812 -1.39262 -3.31528 -2.1142 0 0 33.0076 -0.749362 -2.52881 -9.1036 -0.0439 -1.8651 48.214 -3.20174 -10.6623 -3.154 1.42109e-014 7.10543e-015 40.1611 -1.09482 -2.99428 -2.9377 0 7.10543e-015 23.6095 -0.388536 -1.8589 -9.5325 0 0 40.011 -2.5182 -6.86391 -3.6982 0 1.42109e-014 43.2305 -1.26037 -3.18016 -2.9509 -1.42109e-014 7.10543e-015 20.4009 -0.291131 -1.61989 -9.1083 -0.5168 2.2601 25.4039 -1.17648 -2.93233 -3.6764 1.77636e-015 0 43.8922 -1.29735 -3.21906 -2.8831 0 -1.42109e-014 23.4463 -0.383256 -1.84677 -2.4648 -1.5727 2.6826 -8.81396 -9.51783 3.42009 -3.2298 -1.8647 1.8647 -4.91224 15.5184 -21.4663 -2.6526 -1.5314 1.5314 -16.0895 -11.0132 18.0744 8.2078 -6.7517 -1.5996 -6.02342 0.728073 5.81669 -3.55271e-015 -44.3705 0.2846 -0.0755594 15.4334 -7.58164 -2.66454e-015 -44.4279 -2.9822 5.3251 -12.7703 0.36556 8.88178e-016 -8.7287 10.7106 8.23682e-009 -3.40431 -4.62173e-007 -8.2078 -6.7517 -1.5996 -8.60142 -29.12 -10.1348 -4.44089e-016 -44.3705 0.2862 -1.91661 21.6887 -9.28598 0 -44.4277 -2.9838 5.7386 0.0523503 -3.32745 0 -8.7287 10.7106 4.91511e-006 -4.59791 8.59263e-006 
3.90583 100.824 112.075 3.46666 0.982458 8.15473 0 10.1816 0.1315 -1.2256 4.61028 -4.86849 0 10.0835 -1.0008 -0.0814937 0.453457 -1.30665 4.44089e-016 9.1 -1.3734 -0.0785652 0.458277 -1.30426 0 16.6717 -2.5162 -0.410895 -1.40424 -0.0112735 -4.44089e-016 9.6179 1.685 -1.74807 -4.43861 -3.35775 0 17.8152 2.585 2.17421e-017 1.49089e-016 -7.95139e-016 3.0676 6.4095 9.2836 2.17421e-017 1.49089e-016 -7.95139e-016 -3.0676 6.4095 9.2835 2.17421e-017 1.49089e-016 -7.95139e-016 4.5704 10.946 -2.628 -19.812 2.77665 -7.07627 10.5924 -0.5246 -2.2321 -47.5649 11.687 -25.4469 27.8415 -0.0001 1.42109e-014 -0.000230125 -4.59791e-006 -21.4279 28.3288 1.42109e-014 0 13.1041 -5.57994 -10.8513 2.4661 -1.575 2.6824 13.6709 -3.11086 -0.769491 3.2298 -1.8647 1.8647 -6.85097 16.7815 21.8295 2.6526 -1.5315 1.5315 12.8149 -21.7149 -14.0237 9.1093 -0.5171 2.2601 -23.0588 -1.32394 0.952304 3.6764 0 2.84217e-014 -22.7868 -0.456365 2.26452 2.8831 0 0 -8.42509 -0.0630762 0.856476 9.5334 1.42109e-014 1.42109e-014 -31.8569 -2.07571 6.05677 3.6982 0 0 -24.5586 -0.529017 2.4302 2.9509 0 0 -14.6384 -0.18978 1.47739 9.1045 -0.0439 -1.8651 -32.6617 -2.14008 8.36473 3.154 0 2.84217e-014 -35.7718 -1.10366 3.419 2.9377 1.42109e-014 0 -9.51388 -0.0804049 0.966209 8.0778 -0.4887 -3.8061 -28.8501 -1.81061 6.21491 3.6 0 0 -21.7619 -0.416725 2.16769 2.1142 -1.42109e-014 0 -13.4648 -0.16069 1.3612 -4.57 10.9462 -2.628 16.2089 0.411966 -1.7184 -10.5928 -0.5248 -2.2321 65.7386 2.29767 -11.8353 -27.8415 0 0 -1.25101e-005 -4.38132e-006 9.56328 -28.3288 -7.10543e-015 0.0001 4.84807 12.6176 -0.154656 -8.0767 -0.4885 -3.806 48.9561 -4.2031 -7.70456 -3.6 7.10543e-015 0.0001 44.2036 -1.31379 -3.23607 -2.1142 0 -1.42109e-014 31.5497 -0.686246 -2.42888 -9.1036 -0.0439 -1.8651 46.4588 -3.04655 -10.846 -3.154 -7.10543e-015 0 38.4253 -1.00569 -2.88534 -2.9377 -1.42109e-014 7.10543e-015 21.9513 -0.336511 -1.73502 -9.5325 0 0 37.9442 -2.34671 -7.0113 -3.6982 7.10543e-015 0 41.3076 -1.15548 -3.06475 -2.9509 -1.42109e-014 -1.42109e-014 18.5042 -0.239953 -1.475 -9.1083 -0.5168 2.2601 23.4698 -1.05085 -3.03502 -3.6764 -3.55271e-015 1.42109e-014 42.3722 -1.21307 -3.12908 -2.8831 -1.42109e-014 7.10543e-015 21.3827 -0.3195 -1.6922 -2.4648 -1.5727 2.6826 -8.81396 -9.51783 3.42009 -3.2298 -1.8647 1.8647 -5.04131 15.407 -21.2335 -2.6526 -1.5314 1.5314 -15.7167 -10.7352 17.6811 8.2078 -6.7517 -1.5996 -6.12112 2.55364 5.97677 0 -44.3705 0.2846 -0.0146159 15.7877 -8.18419 -2.66454e-015 -44.4279 -2.9822 5.11535 -15.2912 0.543782 8.88178e-016 -8.7287 10.7106 2.22999e-007 -3.82951 2.77629e-006 -8.2078 -6.7517 -1.5996 -9.51253 -30.5113 -10.5364 4.44089e-016 -44.3705 0.2862 -2.01187 14.7294 -9.53155 3.55271e-015 -44.4277 -2.9838 7.53324 -0.248645 -4.30231 -7.10543e-015 -8.7287 10.7106 -1.5868e-006 -4.21598 4.70829e-006 
